<?xml version="1.0" encoding="UTF-8"?>
<svg id="Layer_2" data-name="Layer 2" xmlns="http://www.w3.org/2000/svg" viewBox="0 0 771.59 160">
  <defs>
    <style>
      .cls-1 {
        fill: #fff;
      }
    </style>
  </defs>
  <g id="Layer_1-2" data-name="Layer 1">
    <g>
      <g>
        <path class="cls-1" d="M208.14,128V33.28h11.84l49.4,74V33.28h11.84v94.72h-11.84l-49.4-74.07v74.07h-11.84Z"/>
        <path class="cls-1" d="M325.02,129.97c-6.97,0-13.06-1.55-18.25-4.64-5.2-3.09-9.24-7.41-12.14-12.96-2.89-5.55-4.34-12.03-4.34-19.44s1.42-14.48,4.28-20.16,6.83-10.07,11.94-13.16c5.11-3.09,11.11-4.64,17.99-4.64s13.23,1.64,18.25,4.93,8.79,7.98,11.31,14.08,3.61,13.35,3.26,21.77h-11.84v-4.21c-.13-8.73-1.91-15.25-5.33-19.57-3.42-4.32-8.51-6.48-15.26-6.48-7.24,0-12.74,2.33-16.51,6.97-3.77,4.65-5.66,11.31-5.66,20s1.88,14.87,5.66,19.47c3.77,4.6,9.14,6.91,16.12,6.91,4.69,0,8.77-1.07,12.24-3.22,3.46-2.15,6.18-5.24,8.16-9.27l11.25,3.88c-2.76,6.27-6.92,11.13-12.47,14.57s-11.76,5.16-18.65,5.16ZM298.77,95.77v-9.41h52.49v9.41h-52.49Z"/>
        <path class="cls-1" d="M355.81,128l27.17-35.92-26.58-35.13h13.95l19.47,26.05,19.27-26.05h13.95l-26.58,35.13,27.23,35.92h-14.01l-19.87-26.84-20,26.84h-14.01Z"/>
        <path class="cls-1" d="M456.53,129.84c-4.6,0-8.53-.72-11.77-2.17-3.25-1.45-5.94-3.38-8.09-5.79s-3.84-5.09-5.06-8.03c-1.23-2.94-2.09-5.94-2.6-9.01-.5-3.07-.76-5.94-.76-8.62v-39.27h11.84v35.59c0,3.33.31,6.56.92,9.67.61,3.11,1.66,5.92,3.12,8.42,1.47,2.5,3.44,4.47,5.92,5.92,2.48,1.45,5.58,2.17,9.31,2.17,2.94,0,5.6-.5,7.99-1.51,2.39-1.01,4.44-2.51,6.15-4.51,1.71-2,3.04-4.53,3.98-7.6.94-3.07,1.41-6.64,1.41-10.72l7.7,2.37c0,6.84-1.24,12.74-3.72,17.7-2.48,4.96-5.96,8.76-10.46,11.41-4.5,2.65-9.79,3.98-15.89,3.98ZM480.21,128v-19.01h-1.32v-52.03h11.78v71.04h-10.46Z"/>
        <path class="cls-1" d="M529.98,129.91c-8.46,0-15.4-1.85-20.82-5.56-5.42-3.71-8.74-8.89-9.97-15.56l11.97-1.91c.96,3.86,3.18,6.92,6.64,9.18,3.46,2.26,7.76,3.39,12.89,3.39,4.82,0,8.63-1.01,11.41-3.03,2.78-2.02,4.18-4.76,4.18-8.22,0-1.97-.46-3.58-1.38-4.83s-2.82-2.42-5.69-3.52c-2.87-1.1-7.2-2.43-12.99-4.01-6.27-1.67-11.21-3.39-14.8-5.16-3.6-1.78-6.16-3.85-7.7-6.22-1.54-2.37-2.3-5.26-2.3-8.68,0-4.17,1.14-7.8,3.42-10.92,2.28-3.11,5.47-5.54,9.57-7.27,4.1-1.73,8.87-2.6,14.31-2.6s10.22.85,14.47,2.57c4.25,1.71,7.68,4.13,10.29,7.27,2.61,3.14,4.15,6.79,4.64,10.95l-11.97,2.17c-.57-3.77-2.41-6.76-5.53-8.98-3.11-2.21-7.08-3.39-11.91-3.52-4.6-.13-8.34.7-11.21,2.5-2.87,1.8-4.31,4.21-4.31,7.24,0,1.75.54,3.23,1.61,4.44,1.07,1.21,3.07,2.36,5.99,3.45,2.92,1.1,7.16,2.35,12.73,3.75,6.27,1.58,11.22,3.3,14.83,5.16,3.62,1.87,6.19,4.06,7.73,6.58,1.54,2.52,2.3,5.62,2.3,9.31,0,6.84-2.52,12.22-7.57,16.15s-11.99,5.89-20.85,5.89Z"/>
        <path class="cls-1" d="M567.67,128V33.28h37.43c.92,0,2.02.03,3.29.1,1.27.07,2.5.21,3.68.43,5.13.79,9.44,2.55,12.93,5.29,3.49,2.74,6.11,6.18,7.86,10.33,1.75,4.14,2.63,8.72,2.63,13.71s-.89,9.64-2.66,13.78c-1.78,4.14-4.41,7.58-7.89,10.29-3.49,2.72-7.77,4.47-12.86,5.26-1.18.18-2.41.31-3.68.39-1.27.09-2.37.13-3.29.13h-25.72v35h-11.71ZM579.38,81.89h25.33c.83,0,1.79-.04,2.86-.13,1.07-.09,2.09-.24,3.06-.46,3.03-.7,5.48-1.98,7.37-3.85,1.88-1.86,3.28-4.06,4.18-6.58.9-2.52,1.35-5.1,1.35-7.73s-.45-5.21-1.35-7.73c-.9-2.52-2.29-4.71-4.18-6.58-1.89-1.86-4.34-3.15-7.37-3.85-.97-.22-1.99-.37-3.06-.46-1.08-.09-2.03-.13-2.86-.13h-25.33v37.5Z"/>
        <path class="cls-1" d="M661.91,129.97c-5.31,0-9.75-.98-13.32-2.93-3.58-1.95-6.27-4.53-8.09-7.73-1.82-3.2-2.73-6.71-2.73-10.52s.7-6.95,2.1-9.67c1.4-2.72,3.41-5,6.02-6.84,2.61-1.84,5.71-3.29,9.31-4.34,3.38-.92,7.15-1.72,11.31-2.4,4.17-.68,8.4-1.3,12.7-1.87,4.3-.57,8.33-1.12,12.1-1.64l-4.21,2.43c.09-6.27-1.18-10.93-3.82-13.98-2.63-3.05-7.19-4.57-13.68-4.57-4.3,0-8.06.99-11.28,2.96-3.22,1.97-5.49,5.13-6.81,9.47l-11.12-3.35c1.71-6.23,5.02-11.12,9.93-14.67,4.91-3.55,11.38-5.33,19.41-5.33,6.45,0,11.98,1.15,16.61,3.45,4.63,2.3,7.95,5.78,9.97,10.43,1.01,2.19,1.64,4.57,1.91,7.14.26,2.57.39,5.25.39,8.06v43.94h-10.39v-17.04l2.43,1.58c-2.67,5.79-6.42,10.14-11.25,13.06-4.83,2.92-10.66,4.38-17.5,4.38ZM663.69,120.17c4.21,0,7.86-.76,10.95-2.27,3.09-1.51,5.58-3.51,7.47-5.99,1.89-2.48,3.11-5.18,3.68-8.12.61-2.19.96-4.63,1.05-7.3s.13-4.76.13-6.25l4.08,1.78c-3.81.57-7.58,1.1-11.28,1.58-3.71.48-7.19.99-10.46,1.51-3.27.53-6.22,1.16-8.85,1.91-1.93.62-3.74,1.42-5.43,2.4-1.69.99-3.05,2.24-4.08,3.75-1.03,1.51-1.54,3.37-1.54,5.56,0,1.93.49,3.77,1.48,5.53.99,1.75,2.52,3.18,4.6,4.28,2.08,1.1,4.81,1.64,8.19,1.64Z"/>
        <path class="cls-1" d="M738.9,129.97c-6.62,0-12.3-1.64-17.04-4.93s-8.39-7.77-10.95-13.45c-2.57-5.68-3.85-12.07-3.85-19.18s1.28-13.48,3.85-19.14,6.22-10.12,10.95-13.39c4.74-3.27,10.39-4.9,16.97-4.9s12.34,1.63,16.91,4.9c4.56,3.27,8.01,7.72,10.36,13.35,2.35,5.64,3.52,12.03,3.52,19.17s-1.17,13.49-3.52,19.14-5.8,10.14-10.36,13.45c-4.56,3.31-10.17,4.97-16.84,4.97ZM740.35,119.25c4.78,0,8.71-1.15,11.77-3.45,3.07-2.3,5.34-5.48,6.81-9.54,1.47-4.06,2.2-8.67,2.2-13.85s-.75-9.84-2.24-13.88c-1.49-4.04-3.74-7.18-6.74-9.44-3-2.26-6.83-3.39-11.48-3.39s-8.8,1.18-11.94,3.55c-3.14,2.37-5.46,5.57-6.97,9.6-1.51,4.04-2.27,8.55-2.27,13.55s.77,9.59,2.3,13.65c1.54,4.06,3.85,7.27,6.94,9.64s6.96,3.55,11.61,3.55ZM761.14,128v-52.3h-1.32v-42.43h11.77v94.72h-10.46Z"/>
      </g>
      <path class="cls-1" d="M94,0c30.86,5.22,56.86,27.8,64.09,61.04,5.14,23.56-.25,51.15-14.35,70.72-12.95,17.99-42.39,40.41-63.05,20.35-17.75-17.25-1.63-46.48,2.8-66.36,2.39-10.76,7.18-33.04-8.02-36.51-9.96-2.29-24.72,4.56-30.1,13.13-10.03,15.98-12.34,43.78-12.99,62.37-.21,5.92.32,12.7-.4,18.49-.25,2.04-1.85,3.55-3.99,2.86-1.64-.54-7.24-5.87-8.65-7.37C2.69,120.89-2.04,94.49.75,70.84c2.06-17.47,8.13-34.93,21.23-47.13-1.39,4.17-3.23,8.2-4.16,12.53-.59,2.73-1.06,5.55-.65,8.35,1.2,8.11,7.86,11.9,14.92,6.83,4.44-3.19,8.73-8,13.18-11.52,14.44-11.39,40.81-22.25,58.7-13.65,17.46,8.38,12.07,31.73,8.37,46.62-2.51,10.15-6.41,19.82-9.16,29.77-1.52,5.49-4.03,14.97,2.85,17.86,7.94,3.34,17.81-7.87,21.8-13.71,12.89-18.95,14.73-47.71,5.41-68.51-3.72-8.32-9.81-15.52-16.29-21.84-6.62-6.46-13.89-12.76-22.51-16.29-.14-.06-.27-.11-.41-.17Z"/>
    </g>
  </g>
</svg>