<?xml version="1.0" encoding="UTF-8"?>
<svg id="Layer_2" data-name="Layer 2" xmlns="http://www.w3.org/2000/svg" viewBox="0 0 160 160">
  <defs>
    <style>
      .cls-1 {
        fill: #fff;
      }
    </style>
  </defs>
  <g id="Layer_1-2" data-name="Layer 1">
    <path class="cls-1" d="M94,0c30.86,5.22,56.86,27.8,64.09,61.04,5.14,23.56-.25,51.15-14.35,70.72-12.95,17.99-42.39,40.41-63.05,20.35-17.75-17.25-1.63-46.48,2.8-66.36,2.39-10.76,7.18-33.04-8.02-36.51-9.96-2.29-24.72,4.56-30.1,13.13-10.03,15.98-12.34,43.78-12.99,62.37-.21,5.92.32,12.7-.4,18.49-.25,2.04-1.85,3.55-3.99,2.86-1.64-.54-7.24-5.87-8.65-7.37C2.69,120.89-2.04,94.49.75,70.84c2.06-17.47,8.13-34.93,21.23-47.13-1.39,4.17-3.23,8.2-4.16,12.53-.59,2.73-1.06,5.55-.65,8.35,1.2,8.11,7.86,11.9,14.92,6.83,4.44-3.19,8.73-8,13.18-11.52,14.44-11.39,40.81-22.25,58.7-13.65,17.46,8.38,12.07,31.73,8.37,46.62-2.51,10.15-6.41,19.82-9.16,29.77-1.52,5.49-4.03,14.97,2.85,17.86,7.94,3.34,17.81-7.87,21.8-13.71,12.89-18.95,14.73-47.71,5.41-68.51-3.72-8.32-9.81-15.52-16.29-21.84-6.62-6.46-13.89-12.76-22.51-16.29-.14-.06-.27-.11-.41-.17Z"/>
  </g>
</svg>